HIERARCHY
ROOT Hips
{
	OFFSET 0.0000 0.0000 0.0000
	CHANNELS 6 Xposition Yposition Zposition Zrotation Xrotation Yrotation
	JOINT Ab
	{
		OFFSET -0.0000 8.1305 -0.0000
		CHANNELS 3 Zrotation Xrotation Yrotation
		JOINT Chest
		{
			OFFSET -0.0000 26.2902 -0.0000
			CHANNELS 3 Zrotation Xrotation Yrotation
			JOINT Neck
			{
				OFFSET -0.0000 26.2902 0.0000
				CHANNELS 3 Zrotation Xrotation Yrotation
				JOINT Head
				{
					OFFSET -0.0000 10.8167 0.0000
					CHANNELS 3 Zrotation Xrotation Yrotation
					End Site
					{
						OFFSET -0.0000 16.7167 0.0000
					}
				}
			}
			JOINT LeftCollar
			{
				OFFSET -0.0000 26.2902 0.0000
				CHANNELS 3 Zrotation Xrotation Yrotation
				JOINT LeftShoulder
				{
					OFFSET 19.6667 -0.0000 0.0000
					CHANNELS 3 Zrotation Xrotation Yrotation
					JOINT LeftElbow
					{
						OFFSET 27.2190 0.0000 0.0000
						CHANNELS 3 Zrotation Xrotation Yrotation
						JOINT LeftWrist
						{
							OFFSET 30.7431 0.0000 0.0000
							CHANNELS 3 Zrotation Xrotation Yrotation
							End Site
							{
								OFFSET 0.0000 -14.7500 0.0000
							}
						}
					}
				}
			}
			JOINT RightCollar
			{
				OFFSET -0.0000 26.2902 0.0000
				CHANNELS 3 Zrotation Xrotation Yrotation
				JOINT RightShoulder
				{
					OFFSET -19.6667 0.0000 0.0000
					CHANNELS 3 Zrotation Xrotation Yrotation
					JOINT RightElbow
					{
						OFFSET -27.2190 0.0000 0.0000
						CHANNELS 3 Zrotation Xrotation Yrotation
						JOINT RightWrist
						{
							OFFSET -30.7431 0.0000 0.0000
							CHANNELS 3 Zrotation Xrotation Yrotation
							End Site
							{
								OFFSET -0.0000 -14.7500 0.0000
							}
						}
					}
				}
			}
		}
	}
	JOINT LeftHip
	{
		OFFSET 11.8000 0.0000 0.0000
		CHANNELS 3 Zrotation Xrotation Yrotation
		JOINT LeftKnee
		{
			OFFSET -0.0000 -39.7832 0.0000
			CHANNELS 3 Zrotation Xrotation Yrotation
			JOINT LeftAnkle
			{
				OFFSET -0.0000 -41.7317 0.0000
				CHANNELS 3 Zrotation Xrotation Yrotation
				End Site
				{
					OFFSET -0.0000 -4.9167 16.7167
				}
			}
		}
	}
	JOINT RightHip
	{
		OFFSET -11.8000 0.0000 0.0000
		CHANNELS 3 Zrotation Xrotation Yrotation
		JOINT RightKnee
		{
			OFFSET -0.0000 -39.7832 0.0000
			CHANNELS 3 Zrotation Xrotation Yrotation
			JOINT RightAnkle
			{
				OFFSET -0.0000 -41.7317 0.0000
				CHANNELS 3 Zrotation Xrotation Yrotation
				End Site
				{
					OFFSET -0.0000 -4.9167 16.7167
				}
			}
		}
	}
}
MOTION
Frames: 23
Frame Time: 0.010000
-9.4960 83.1910 67.6177 352.9146 345.5487 200.4706 359.8688 349.0544 357.0465 357.4225 18.7076 357.4794 342.5709 340.1981 350.0133 6.5178 9.4491 352.5483 336.8288 356.9899 14.4351 345.2853 54.5429 317.9015 19.0873 344.5051 282.9667 96.8659 351.0089 352.9887 23.9572 356.1855 342.2338 53.4633 35.5206 351.9998 333.4725 340.4838 71.5071 267.1750 348.8576 355.3505 357.8996 14.1751 0.6051 357.0493 6.6004 359.9201 345.4931 339.9630 8.1230 322.4391 319.5395 352.6386 21.2460 31.9142 4.9444 354.5515 344.5588 314.1386 
-9.3307 82.8475 66.4738 352.7438 344.9824 200.8194 0.0174 348.7738 356.9662 357.4574 18.6627 357.3793 342.2347 340.4805 349.8923 6.3755 8.7339 352.4822 336.7558 357.0223 14.3206 345.0533 54.7347 318.2528 19.2681 344.6108 283.6631 97.1489 350.8286 353.5621 24.2285 356.1635 342.3783 53.3100 35.6268 351.9251 333.2728 340.6373 70.6414 267.6488 348.5898 355.1787 357.9483 14.1337 0.6342 357.1965 7.0107 359.9700 344.8377 340.1533 8.1985 321.8724 319.6369 352.3323 22.0188 32.6938 4.6145 354.5886 344.1494 313.1345 
-9.1724 82.5871 65.4528 352.5185 344.2146 201.1316 0.0742 348.5080 356.8660 357.4772 18.5110 357.2678 342.0883 340.6593 349.8617 6.1571 7.8111 352.5179 336.6731 357.0455 14.1730 345.2134 55.1133 318.0940 19.6567 344.4123 284.6033 97.2284 350.7675 353.8167 24.5623 356.1293 342.5357 52.9862 35.7239 352.0287 333.0479 340.7258 69.7737 268.0872 348.3131 355.2207 357.7160 13.7680 0.5457 357.5184 7.4806 0.3860 344.1721 340.6633 7.9707 320.2555 318.9223 350.6819 23.4922 34.6895 4.5568 354.5743 344.0837 313.2953 
-8.9662 82.3577 64.3990 352.4150 343.7319 201.3583 0.3500 348.4114 356.8284 357.4850 18.5893 357.2029 341.8837 340.5387 349.7690 5.9351 7.0247 352.5323 336.3530 357.0132 14.0614 345.2078 54.8366 318.3701 19.6890 344.7354 285.1611 97.6882 350.9873 354.3953 24.9705 356.0711 342.6532 52.5346 36.0454 352.4567 332.6437 340.7412 68.6033 267.9052 348.1598 355.4415 357.7607 13.6111 0.3193 357.6662 8.0503 1.0649 343.4133 341.2177 7.7822 318.7500 318.0385 349.4319 25.8913 37.0608 4.0178 354.7029 343.1068 312.5292 
-8.6771 82.1654 63.3095 352.5959 343.4369 201.4514 0.8492 348.3205 356.8925 357.5947 18.8544 357.2061 341.6448 340.4609 349.6816 5.8751 6.0336 352.5573 336.0460 356.9896 13.9262 344.9054 54.4051 318.8796 19.5440 345.1426 285.7265 98.0395 350.8039 354.0618 25.3719 356.0142 342.7251 51.9228 36.7065 353.2323 331.9903 340.6697 67.0813 267.8888 347.9652 355.2325 358.2006 13.5120 0.4472 357.7027 8.7520 0.7807 342.7970 341.5150 8.3745 317.9182 317.0493 348.4606 28.0358 39.2780 2.9391 354.7400 342.3344 312.3201 
-8.3668 82.0285 62.2119 353.0006 343.2441 201.4906 1.5096 348.2199 357.0111 357.8455 19.1806 357.2217 341.6958 340.2269 349.6530 5.3716 5.3141 352.6135 335.7271 356.9790 13.7237 344.5612 54.0592 319.4462 19.3309 345.4498 286.2953 98.2749 350.5792 353.2800 25.6844 355.9918 342.9468 51.4353 37.2704 353.9197 331.1505 340.5413 65.3492 268.0119 347.6868 354.9141 358.8844 13.4001 0.8663 357.7537 9.4130 0.5978 342.1455 342.1105 8.7531 317.7701 316.1665 347.6255 29.3763 41.1075 1.4351 354.8644 342.1231 313.2732 
-8.0750 81.9743 61.1574 353.4245 342.8199 201.5139 2.0527 347.9546 357.1023 358.2173 19.3909 357.1915 342.1187 339.7251 349.7573 4.2945 5.2449 352.7809 335.4085 356.9830 13.4480 343.9471 53.8120 320.3426 19.2046 345.6253 286.8117 98.6946 350.7537 353.2152 25.9244 356.0125 343.2521 50.8653 37.9138 354.5559 330.2454 340.4441 63.6311 268.0692 347.7623 354.4200 359.4341 12.9550 1.2728 357.8338 10.1877 0.7595 340.7031 343.0158 8.9663 317.7106 315.3357 346.6222 30.1196 42.6164 0.0682 355.2213 341.6691 314.3182 
-7.8272 81.9801 60.0445 353.6242 342.5098 201.4854 2.3890 347.8221 357.1472 358.6183 19.5443 357.1315 341.9057 339.7662 349.7520 4.3348 4.8158 352.8336 335.2034 357.0121 13.3341 343.6195 53.9041 320.8915 19.3093 345.5781 287.3696 98.5275 350.7946 353.3175 26.0496 356.0632 343.4258 50.2289 39.0145 355.5094 329.1498 340.4020 61.5280 267.6198 347.9155 353.6979 359.8054 12.7380 1.8263 357.9179 10.8772 1.0100 339.8210 344.2043 8.8116 317.9067 314.9548 345.7630 30.4141 43.8908 359.5082 354.9285 341.3234 314.9457 
-7.5960 82.0603 58.9017 353.6063 342.3311 201.4749 2.4986 347.9322 357.1833 359.0777 19.4825 357.0808 341.6840 340.2251 349.8053 4.5133 4.3966 352.8689 335.3126 357.0716 13.2029 342.8623 54.5300 321.5331 19.7813 345.2558 288.1363 98.1698 350.6500 353.5993 26.1504 356.1091 343.5984 49.5593 40.0968 356.3259 327.9785 340.3544 59.5168 267.2658 348.3458 353.1172 0.0110 12.6467 2.1742 357.9799 11.5646 1.7487 339.5943 345.7263 8.5403 318.3047 315.0287 345.4201 30.5748 44.8753 359.9328 354.0296 341.1794 314.7050 
-7.3776 82.1961 57.7938 353.5276 342.1384 201.6394 2.5800 348.1214 357.0971 359.3596 19.3192 356.9348 342.0553 340.4175 349.9562 4.1178 4.4279 352.9253 335.7402 357.1490 13.2856 342.8142 55.6876 321.1129 20.6614 344.6397 289.3074 97.9187 350.4255 354.1117 26.3820 356.1147 343.7746 48.8217 40.7571 357.0855 327.0083 340.4790 57.8320 267.1343 348.5130 352.6224 0.1154 12.3487 2.2088 358.0770 12.4801 2.5318 339.6916 346.8113 8.2074 318.6495 315.3725 345.3920 30.7975 45.5594 0.5521 353.2967 340.7815 313.9026 
-7.1047 82.3667 56.6718 353.5228 341.9738 201.9516 2.5722 348.3402 356.9885 359.7563 19.1075 356.7622 342.4424 340.4712 350.0956 3.6890 4.6440 352.9945 336.2313 357.1999 13.4684 342.7154 56.7512 320.6769 21.4890 344.2634 290.3089 97.9954 350.2680 354.7010 26.4966 356.1048 343.7462 48.0720 41.5560 358.1513 326.0331 340.5964 56.1171 267.2713 348.5069 352.3536 0.3135 11.8227 2.1325 358.2141 13.7434 2.6600 340.8544 347.7881 8.6264 319.2619 315.8342 345.8821 31.0177 45.9105 0.7381 352.5783 340.4322 313.1750 
-6.7909 82.5665 55.5578 353.5742 341.8762 202.2847 2.4942 348.6157 356.9109 0.2990 18.8959 356.6103 342.5861 340.5742 350.1933 3.5476 4.7729 353.0568 336.5826 357.2127 13.6351 342.1927 57.2693 320.8319 21.8118 344.4529 290.7345 98.3355 350.3269 355.1523 26.3666 356.1120 343.5374 47.5368 42.7512 359.3692 324.8316 340.4881 54.3598 267.4380 348.6134 352.3101 0.5594 11.1588 2.0400 358.3142 15.2144 2.6148 343.4940 349.1069 9.6291 320.1027 316.3722 346.7641 31.2642 45.9692 0.7086 351.8799 340.1951 312.5003 
-6.5417 82.8118 54.5400 353.4081 341.6575 202.3806 2.3475 348.8721 356.8973 0.6453 18.7021 356.5640 342.5372 340.4201 350.2603 3.5223 5.1632 353.1535 336.8625 357.2141 13.7702 341.0074 57.2287 321.7147 21.5857 345.0151 290.6483 98.8822 350.5911 355.4591 26.1913 356.1443 343.4040 46.6983 44.2209 0.8606 323.4828 340.3457 52.4312 267.9265 348.7164 352.0852 0.3325 10.3730 1.6313 358.3656 16.5478 3.2213 344.5789 349.6723 10.4377 320.6375 316.6950 347.4053 31.4644 46.1646 0.5145 351.0235 339.9516 312.0607 
-6.2725 83.0597 53.5438 353.2280 341.4431 202.3727 2.1292 349.0936 356.9688 0.9736 18.5674 356.6121 342.3815 340.2067 350.2114 3.5978 5.6034 353.1350 336.9532 357.1826 13.8521 340.0552 56.8325 322.7946 20.8713 345.7423 290.0132 99.2199 350.8415 355.3724 26.0519 356.1401 343.3097 46.1616 44.9254 1.9574 322.2894 340.4183 51.3750 267.4979 348.9673 351.0638 0.0681 9.6002 1.3177 358.1795 17.3097 4.1879 343.5180 349.8769 11.7426 321.2965 316.8987 348.0471 31.3586 46.4609 0.9212 350.3003 339.8641 311.4631 
-5.9735 83.3262 52.5288 353.2344 341.2608 202.4341 1.9882 349.2269 357.0738 1.3063 18.4122 356.6798 342.4716 340.2896 350.1522 3.6589 5.7410 353.0301 337.0804 357.1783 14.0155 339.8494 56.7312 323.1333 20.1619 346.2307 289.5519 99.0982 350.8078 355.1629 25.8830 356.1686 343.2826 45.9794 45.2337 2.6729 321.4530 340.4718 50.8140 267.0385 349.0884 350.4835 0.0438 8.8080 1.4749 357.9623 17.8551 4.5465 343.9760 349.6778 11.4870 322.2535 317.1994 348.8514 31.1250 46.4593 1.0769 349.7361 339.7047 311.0615 
-5.6830 83.6343 51.5464 353.2574 341.0756 202.4749 1.8166 349.4073 357.2494 1.6981 18.1955 356.8161 342.3960 340.2325 349.9916 3.8872 5.9622 352.8664 337.2257 357.1641 14.1386 339.5070 56.7618 323.5158 19.4808 346.6356 289.0324 99.1395 350.9096 355.1297 25.7378 356.1704 343.1386 45.6283 45.4447 3.4493 320.7560 340.4299 50.6200 266.7652 349.2129 349.4567 359.9437 8.0342 1.9436 357.8600 17.9420 5.1287 342.9472 349.6892 10.4573 323.2549 317.5425 349.6735 30.7968 46.3536 1.1948 349.2636 339.5530 310.7545 
-5.4164 83.9791 50.6218 353.2716 340.7479 202.5073 1.6159 349.5033 357.4392 1.9975 17.9103 356.9831 342.4450 340.2334 349.7979 4.0336 6.1243 352.6399 337.4095 357.1743 14.2120 339.1546 56.8453 323.8869 18.7907 347.0367 288.5770 98.9646 350.8570 354.7900 25.6420 356.1447 342.9254 45.2479 45.5904 4.1782 320.2278 340.3386 50.6897 266.3174 349.4477 348.5400 359.6861 7.0359 2.4394 357.6910 17.7844 5.7708 342.7861 349.7397 9.3650 324.0705 317.8208 350.1656 30.1969 46.2241 1.6535 348.9918 339.3798 310.5587 
-5.1874 84.3558 49.7388 353.2575 340.3106 202.5873 1.4960 349.4849 357.5952 2.0326 17.6332 357.1462 342.5442 340.2188 349.5728 4.2014 6.2700 352.3791 337.6054 357.1935 14.2684 338.9767 56.9031 324.1787 18.1280 347.3900 288.2041 98.5828 350.6709 354.2544 25.7174 356.0727 342.7961 44.7643 45.4496 4.7599 320.0021 340.2368 51.1325 265.9100 349.8196 347.6493 359.2232 5.7877 2.7329 357.5388 17.6727 5.8540 344.4338 349.4828 9.2137 324.6803 318.1377 350.3582 29.4481 45.9612 2.1707 348.7316 339.2757 310.5138 
-4.9914 84.7556 48.8534 353.2185 339.9286 202.6618 1.3952 349.4873 357.7679 2.0269 17.3575 357.3357 342.5394 340.1356 349.3790 4.3964 6.4994 352.1892 337.6750 357.1866 14.2879 338.5739 56.7882 324.8303 17.4200 347.7965 287.8013 98.2554 350.4619 353.6869 25.8453 356.0246 342.7570 44.1806 45.1599 5.2130 320.0071 340.1283 51.8657 265.5135 350.2886 346.5080 358.6352 4.4888 2.8980 357.4170 17.6176 5.5175 346.3491 349.5948 10.5694 325.2583 318.5858 350.5974 28.7818 45.5869 2.7151 348.4132 339.2024 310.3963 
-4.7801 85.1745 47.9451 353.1885 339.7157 202.6184 1.4128 349.4847 357.9547 1.8601 17.3488 357.5452 342.4224 339.9448 349.2131 4.7903 6.7309 352.0528 337.7940 357.1799 14.3942 338.4326 56.6155 325.2098 16.8518 348.0410 287.5755 97.8385 350.2330 353.0720 26.1045 355.9861 342.9108 43.5525 44.6263 5.6041 320.2068 340.0126 52.8515 265.0980 350.7587 345.3945 358.0520 3.3152 2.9286 357.3519 17.5055 4.9063 346.4716 350.9559 19.9265 326.1141 319.1655 351.1911 28.1376 45.0367 3.2590 348.0573 339.1778 310.1912 
-4.5890 85.6130 47.0175 353.1310 339.5533 202.6124 1.4430 349.3868 358.0752 1.6098 17.4936 357.6940 342.4631 339.8275 349.1105 5.0006 6.7963 351.9461 338.0262 357.2063 14.4734 337.9933 56.5266 325.7043 16.4676 348.1771 287.5713 97.2018 349.9062 352.2415 26.4092 355.9476 343.1484 42.9655 43.8586 5.8981 320.6874 339.9426 54.1217 264.5864 351.0624 344.6658 357.4358 2.0845 3.0340 357.2344 17.5163 4.6141 347.3966 350.5492 20.7640 326.9773 319.9672 351.9610 27.5588 44.1606 3.5080 347.7263 339.1466 310.1020 
-4.3655 86.0563 46.1049 353.1824 339.3782 202.6880 1.3838 349.3897 358.2246 1.5791 17.3391 357.8592 342.1569 339.9791 348.9521 5.5504 6.7488 351.7951 338.0222 357.1992 14.4818 337.4172 56.3090 326.6211 16.0636 348.4236 287.4903 97.2069 349.8923 351.7859 26.4998 355.9701 343.1825 42.2540 43.5904 6.6086 321.0665 339.7405 54.8795 264.6846 351.1553 344.4929 356.9000 0.7013 2.8623 357.1043 17.5600 4.2128 348.0554 350.0159 21.4396 327.9147 320.9188 352.3163 26.5207 43.1542 4.4828 347.7357 339.1533 310.0445 
-4.1450 86.4954 45.1842 353.1151 339.2831 202.5891 1.2127 349.5143 358.4404 1.5507 17.1324 358.1048 341.8397 340.0692 348.8163 6.0018 6.8612 351.6722 338.0539 357.1644 14.5529 336.7923 56.2160 327.5299 15.8717 348.4912 287.5588 97.0311 349.6773 351.4378 26.4706 355.9819 343.1471 41.5853 43.8099 7.4243 321.1268 339.4239 55.2362 264.8372 351.0896 344.4865 356.2744 359.4901 2.8230 357.1312 17.4293 3.9399 345.7409 348.3956 22.0553 328.8828 321.8087 352.8120 25.5550 42.2730 5.2397 347.6259 339.0425 310.0261 
